<?xml version="1.0" encoding="iso-8859-1"?>
<!-- Uploaded to: SVG Repo, www.svgrepo.com, Generator: SVG Repo Mixer Tools -->
<svg fill="#000000" height="800px" width="800px" version="1.1" id="Capa_1" xmlns="http://www.w3.org/2000/svg" xmlns:xlink="http://www.w3.org/1999/xlink" 
	 viewBox="0 0 463 463" xml:space="preserve">
<g>
	<path d="M303.758,0c-87.806,0-159.242,71.436-159.242,159.242c0,41.211,15.737,78.814,41.515,107.12l-12.151,12.151
		c-4.398-2.561-9.412-3.932-14.639-3.932c-7.796,0-15.123,3.037-20.63,8.548L8.549,413.19C3.036,418.699,0,426.026,0,433.822
		c0,7.796,3.036,15.123,8.545,20.628C14.054,459.963,21.381,463,29.177,463s15.124-3.036,20.63-8.547L179.87,324.39
		c5.513-5.509,8.549-12.836,8.549-20.632c0-5.228-1.371-10.241-3.932-14.639l12.151-12.151
		c28.306,25.778,65.909,41.515,107.12,41.515c87.806,0,159.242-71.436,159.242-159.242S391.564,0,303.758,0z M169.265,313.781
		L39.198,443.848C36.523,446.525,32.964,448,29.177,448s-7.346-1.475-10.025-4.156C16.475,441.168,15,437.609,15,433.822
		s1.475-7.346,4.154-10.023l130.067-130.066c2.675-2.678,6.234-4.152,10.021-4.152s7.346,1.475,10.026,4.157
		c2.677,2.675,4.151,6.234,4.151,10.021S171.945,311.104,169.265,313.781z M303.758,303.483
		c-79.535,0-144.242-64.707-144.242-144.242S224.223,15,303.758,15S448,79.707,448,159.242S383.293,303.483,303.758,303.483z"/>
	<path d="M390.467,151.742H217.048c-4.142,0-7.5,3.358-7.5,7.5s3.358,7.5,7.5,7.5h173.419c4.142,0,7.5-3.358,7.5-7.5
		S394.609,151.742,390.467,151.742z"/>
</g>
</svg>